<svg width="23" height="24" viewBox="0 0 23 24" fill="none" xmlns="http://www.w3.org/2000/svg">
<path d="M11.4969 8.32519C9.38527 8.32519 7.66201 10.0485 7.66201 12.1602C7.66201 14.2718 9.38527 15.9951 11.4969 15.9951C13.6085 15.9951 15.3318 14.2718 15.3318 12.1602C15.3318 10.0485 13.6085 8.32519 11.4969 8.32519ZM22.9987 12.1602C22.9987 10.5721 23.0131 8.99839 22.9239 7.4132C22.8347 5.57196 22.4147 3.93785 21.0683 2.59144C19.7191 1.24215 18.0879 0.824998 16.2467 0.735812C14.6586 0.646627 13.085 0.661012 11.4998 0.661012C9.91174 0.661012 8.33808 0.646627 6.75292 0.735812C4.91171 0.824998 3.27763 1.24503 1.93125 2.59144C0.581988 3.94073 0.164838 5.57196 0.0756548 7.4132C-0.0135288 9.00127 0.000855714 10.575 0.000855714 12.1602C0.000855714 13.7454 -0.0135288 15.3219 0.0756548 16.9071C0.164838 18.7484 0.584864 20.3825 1.93125 21.7289C3.28051 23.0782 4.91171 23.4953 6.75292 23.5845C8.34096 23.6737 9.91462 23.6593 11.4998 23.6593C13.0878 23.6593 14.6615 23.6737 16.2467 23.5845C18.0879 23.4953 19.7219 23.0753 21.0683 21.7289C22.4176 20.3796 22.8347 18.7484 22.9239 16.9071C23.016 15.3219 22.9987 13.7482 22.9987 12.1602ZM11.4969 18.0608C8.23164 18.0608 5.59641 15.4255 5.59641 12.1602C5.59641 8.89482 8.23164 6.25954 11.4969 6.25954C14.7622 6.25954 17.3974 8.89482 17.3974 12.1602C17.3974 15.4255 14.7622 18.0608 11.4969 18.0608ZM17.6391 7.39594C16.8767 7.39594 16.261 6.78027 16.261 6.01788C16.261 5.25549 16.8767 4.63983 17.6391 4.63983C18.4014 4.63983 19.0171 5.25549 19.0171 6.01788C19.0173 6.19891 18.9818 6.37821 18.9127 6.54551C18.8435 6.71281 18.742 6.86481 18.614 6.99282C18.486 7.12083 18.334 7.22233 18.1667 7.2915C17.9994 7.36068 17.8201 7.39616 17.6391 7.39594Z" fill="#654A9B"/>
</svg>
