<svg width="24" height="25" viewBox="0 0 24 25" fill="none" xmlns="http://www.w3.org/2000/svg">
<path d="M12 0.660156C5.37321 0.660156 0 6.03337 0 12.6602C0 19.2869 5.37321 24.6602 12 24.6602C18.6268 24.6602 24 19.2869 24 12.6602C24 6.03337 18.6268 0.660156 12 0.660156ZM17.767 9.70569C17.775 9.83158 17.775 9.96284 17.775 10.0914C17.775 14.0235 14.7804 18.553 9.30804 18.553C7.62054 18.553 6.05625 18.0628 4.73839 17.2191C4.97946 17.2459 5.20982 17.2566 5.45625 17.2566C6.84911 17.2566 8.12946 16.7852 9.15 15.9869C7.84286 15.9602 6.74464 15.103 6.36964 13.9244C6.82768 13.9914 7.24018 13.9914 7.71161 13.8709C7.03855 13.7341 6.43359 13.3686 5.99951 12.8364C5.56542 12.3041 5.32898 11.638 5.33036 10.9512V10.9137C5.72411 11.136 6.1875 11.2727 6.67232 11.2914C6.26476 11.0198 5.93051 10.6518 5.69923 10.2201C5.46794 9.78832 5.34676 9.30619 5.34643 8.81641C5.34643 8.26194 5.49107 7.75569 5.75089 7.31641C6.49795 8.23606 7.43017 8.98822 8.48696 9.52399C9.54375 10.0598 10.7014 10.3672 11.8848 10.4262C11.4643 8.40391 12.975 6.7673 14.7911 6.7673C15.6482 6.7673 16.4196 7.12623 16.9634 7.7048C17.6357 7.57891 18.2786 7.32712 18.8518 6.98962C18.6295 7.67801 18.1634 8.25926 17.5446 8.62623C18.1446 8.56194 18.7232 8.39587 19.2589 8.16284C18.8545 8.75748 18.3482 9.28516 17.767 9.70569Z" fill="#654A9B"/>
</svg>
